<?xml version="1.0" encoding="utf-8"?>
<svg width="2500" height="1911" viewBox="0 0 288 220.111" xmlns="http://www.w3.org/2000/svg">
  <radialGradient id="a" cx="701.669" cy="349.885" r="82.836" gradientTransform="matrix(1.6005 0 0 -1.6005 -946.777 535.915)" gradientUnits="userSpaceOnUse">
    <stop offset="0" stop-color="#c5198c"/>
    <stop offset="0.582" stop-color="#91298d"/>
    <stop offset="1" stop-color="#5d2e8f"/>
  </radialGradient>
  <path fill="url(#a)" d="M258.829.051h-82.892c-6.133 0-11.105 4.974-11.105 11.105 0 1.912.42 3.702 1.326 5.271l41.607 72.062a11.09 11.09 0 0 0 9.616 5.57c4.117 0 7.701-2.244 9.619-5.57l41.604-72.062c.908-1.569 1.328-3.359 1.328-5.271.002-6.133-4.965-11.105-11.103-11.105z"/>
  <radialGradient id="b" cx="602.071" cy="335.033" r="180.005" gradientTransform="matrix(1.6005 0 0 -1.6005 -946.777 535.915)" gradientUnits="userSpaceOnUse">
    <stop offset="0" stop-color="#2aace3"/>
    <stop offset="0.577" stop-color="#1d9fda"/>
    <stop offset="1" stop-color="#0862af"/>
  </radialGradient>
  <path fill="url(#b)" d="M129.777 102.357c0 .01.01.017.01.021v-.009l-.01-.012zm73.032 1.39l-.457-.79-51.452-89.12-.898-1.555C145.639 4.723 137.273.05 127.98.05H85.549a8.574 8.574 0 0 0-8.571 8.57c0 1.471.34 2.881 1.023 4.061l51.785 89.697a27.017 27.017 0 0 1 3.729 13.735c0 4.863-1.281 9.424-3.518 13.371l-45.028 78.001c-.684 1.172-1.021 2.584-1.021 4.057a8.567 8.567 0 0 0 8.57 8.568h43.537c9.289 0 17.658-4.67 22.021-12.229l.896-1.559 43.299-74.998.807-1.396c2.207-3.825 3.227-8.202 3.227-12.853 0-4.845-1.243-9.422-3.496-13.328z"/>
</svg>